<svg aria-hidden="true" style="position:absolute;width:0;height:0;overflow:hidden" xmlns="http://www.w3.org/2000/svg"><defs>

<symbol id="icon-arrow-right" viewBox="0 0 19 32"><path d="M2.057 32 0 27.317 13.135 16.13 0 4.683 2.057 0l16.852 15.089v2.602L2.057 32z"/></symbol>
<symbol id="icon-arrow-left" viewBox="0 0 19 32"><path d="m16.852 0 2.057 4.683L5.774 15.87l13.135 11.447L16.852 32 0 16.911v-2.602L16.852 0z"/></symbol>

</symbol><symbol id="icon-pencil" viewBox="0 0 32 32"><path d="m2.415 9.045 6.629-6.629-1.105-1.105a4.692 4.692 0 0 0-6.629 0C.425 2.196-.063 3.373-.063 4.625S.425 7.054 1.31 7.939l1.105 1.105zM3.741 10.37l2.652-2.652 3.8 3.8-2.652 2.652-3.8-3.8zM7.719 6.393l2.652-2.652 3.8 3.799-2.652 2.652-3.8-3.799zM22.825 28.127l-.437.437 8.265 3.306a.94.94 0 0 0 1.011-.208.938.938 0 0 0 .208-1.011l-3.306-8.265-5.741 5.74zM17.705 24.334l2.652-2.652 3.13 3.13-2.652 2.652-3.13-3.13zM21.682 20.357l2.652-2.652 3.13 3.13-2.652 2.652-3.13-3.13zM8.051 25.15a.938.938 0 0 0 0 1.326l2.431 2.431-2.757 2.757a.938.938 0 0 1-1.326 0L.212 25.477a.938.938 0 0 1 0-1.326L24.15.213a.938.938 0 0 1 1.326 0L31.663 6.4a.935.935 0 0 1 0 1.326l-2.757 2.757-3.314-3.315a.938.938 0 0 0-1.326 1.326l3.314 3.314-2.094 2.094-2.431-2.431a.938.938 0 0 0-1.326 1.326l2.431 2.431-2.094 2.094-3.314-3.315a.938.938 0 0 0-1.326 1.326l3.314 3.314-2.094 2.094-2.431-2.431a.938.938 0 0 0-1.326 1.326l2.431 2.431-2.094 2.094-3.314-3.315a.938.938 0 0 0-1.326 1.326l3.314 3.314-2.094 2.094-2.431-2.431a.938.938 0 0 0-1.326 0z"/></symbol>

<symbol id="icon-team" viewBox="0 0 37 32"><path d="M18.286 12.428a6.214 6.214 0 1 0 0-12.428 6.214 6.214 0 0 0 0 12.428zM30.857 12.428a3.928 3.928 0 1 0 0-7.856 3.928 3.928 0 0 0 0 7.856zM5.714 12.428a3.929 3.929 0 1 0 0-7.857 3.929 3.929 0 0 0 0 7.857zM9.585 15.956c-1.546-1.267-2.947-1.099-4.735-1.099-2.674 0-4.85 2.163-4.85 4.821v7.801a2.1 2.1 0 0 0 2.101 2.093c5.002 0 4.399.09 4.399-.216 0-5.528-.655-9.581 3.085-13.399z"/><path d="M19.986 14.886c-3.123-.26-5.838.003-8.179 1.936-3.918 3.139-3.164 7.364-3.164 12.534a2.505 2.505 0 0 0 2.501 2.501c15.077 0 15.677.486 16.571-1.494.293-.669.213-.457.213-6.862 0-5.088-4.405-8.616-7.942-8.616zM31.722 14.858c-1.798 0-3.191-.166-4.735 1.099 3.712 3.79 3.085 7.567 3.085 13.399 0 .308-.5.216 4.324.216 1.2 0 2.176-.972 2.176-2.167v-7.726c0-2.658-2.176-4.821-4.85-4.821z"/>

</symbol><symbol id="icon-ok" viewBox="0 0 32 32"><path d="M16 0C7.212 0 0 7.212 0 16s7.212 16 16 16 16-7.212 16-16S24.788 0 16 0zm-1.936 23.277-7.007-7.006 2.651-2.651 4.478 4.478 8.989-8.172 2.523 2.774-11.635 10.578z"/></symbol>

<symbol id="icon-clock" viewBox="0 0 32 32"><path d="m26.792 9.092 2.151-2.149a1.332 1.332 0 1 0-1.885-1.885l-2.151 2.149a13.934 13.934 0 0 0-7.573-3.139V2.667h2.667a1.333 1.333 0 1 0 0-2.666h-8a1.333 1.333 0 1 0 0 2.666h2.667v1.401C7.572 4.741 2.001 10.731 2.001 18c0 7.72 6.28 14 14 14s14-6.28 14-14c0-3.381-1.205-6.485-3.208-8.908zM17.333 18a1.333 1.333 0 1 1-2.666 0v-7.333a1.333 1.333 0 1 1 2.666 0V18z"/></symbol>

<symbol id="icon-sheet" viewBox="0 0 32 32"><path d="M24.344 5.464c0-.751-.293-1.457-.824-1.989L20.869.824A2.875 2.875 0 0 0 18.862 0h-.161v5.625h5.643v-.161z"/><path d="M17.121 19.346a3.76 3.76 0 0 1 .901-1.463l6.348-6.322V7.5h-6.588c-.518 0-.907-.419-.907-.938V-.001H2.812A2.816 2.816 0 0 0-.001 2.812v26.375A2.816 2.816 0 0 0 2.812 32h18.72c1.551 0 2.838-1.262 2.838-2.813V22.19l-1.03 1.005a3.721 3.721 0 0 1-1.457.899l-2.981.995-.454.025a2.35 2.35 0 0 1-1.902-.977 2.35 2.35 0 0 1-.319-2.111l.895-2.681zM4.688 16.875h9.345a.937.937 0 1 1 0 1.876H4.688a.937.937 0 1 1 0-1.876zm-.938-2.812c0-.518.419-.938.938-.938h9.345a.937.937 0 1 1 0 1.876H4.688a.937.937 0 0 1-.938-.938zm0 7.5c0-.518.419-.938.938-.938h9.345a.937.937 0 1 1 0 1.875H4.688a.937.937 0 0 1-.938-.937zm14.032 4.687a.937.937 0 1 1 0 1.876h-5.625a.937.937 0 1 1 0-1.876h5.625zm-13.094-15a.937.937 0 1 1 0-1.875h13.095a.937.937 0 1 1 0 1.875H4.688z"/><path d="m18.819 20.176-.816 2.447a.469.469 0 0 0 .593.593l2.445-.817-2.223-2.223zM26.101 12.457l-6.174 6.174 2.663 2.663 6.174-6.175-2.663-2.662zM31.449 9.767c-.329-.331-.815-.521-1.329-.521s-1 .19-1.331.522l-1.362 1.362 2.662 2.662 1.362-1.362a1.887 1.887 0 0 0-.002-2.663z"/></symbol>

<symbol id="icon-dialog" viewBox="0 0 32 32"><path d="M31.999 21.656c0-3.971-2.278-7.515-5.69-9.239-.106 7.614-6.279 13.787-13.893 13.893C14.14 29.722 17.684 32 21.655 32c1.862 0 3.672-.496 5.263-1.438l5.035 1.393-1.393-5.035a10.307 10.307 0 0 0 1.438-5.263z"/><path d="M24.438 12.219C24.438 5.481 18.957 0 12.219 0S0 5.481 0 12.219c0 2.196.584 4.334 1.694 6.211L.045 24.393l5.963-1.649a12.18 12.18 0 0 0 6.211 1.694c6.738 0 12.219-5.481 12.219-12.219zM10.344 9.375H8.469c0-2.068 1.682-3.75 3.75-3.75s3.75 1.682 3.75 3.75c0 1.05-.444 2.058-1.219 2.767L13.157 13.6v1.462h-1.875v-2.288l2.202-2.016a1.877 1.877 0 0 0-1.265-3.259 1.877 1.877 0 0 0-1.875 1.875zm.937 7.563h1.875v1.875h-1.875v-1.875z"/></symbol>

<symbol id="icon-long-arrow" viewBox="0 0 67 32"><path d="M65.414 17.414a2 2 0 0 0 0-2.828L52.686 1.858a2 2 0 0 0-2.829 2.828L61.171 16 49.857 27.314a2 2 0 0 0 2.829 2.829l12.728-12.728zM0 18h64v-4H0v4z"/></symbol>
</defs></svg>